<mxfile host="app.diagrams.net" modified="2024-06-04T12:39:15.917Z" agent="Mozilla/5.0 (Windows NT 10.0; Win64; x64) AppleWebKit/537.36 (KHTML, like Gecko) Chrome/124.0.0.0 Safari/537.36" etag="7sCRYjIy_Xpib3FyElCW" version="24.4.13" type="github">
  <diagram name="第 1 页" id="SsvRl20KnlxQgF0leVah">
    <mxGraphModel dx="1434" dy="780" grid="1" gridSize="10" guides="1" tooltips="1" connect="1" arrows="1" fold="1" page="1" pageScale="1" pageWidth="827" pageHeight="1169" math="1" shadow="0">
      <root>
        <mxCell id="0" />
        <mxCell id="1" parent="0" />
        <mxCell id="A5vNZOaMK622pVnwqQIG-1" value="" style="rounded=0;whiteSpace=wrap;html=1;strokeColor=#c0dab8;fillColor=#d5e8d4;" vertex="1" parent="1">
          <mxGeometry x="520" y="400" width="200" height="520" as="geometry" />
        </mxCell>
        <mxCell id="A5vNZOaMK622pVnwqQIG-2" value="&lt;font style=&quot;font-size: 16px;&quot;&gt;qkv GEMM&lt;/font&gt;" style="rounded=0;whiteSpace=wrap;html=1;fillColor=#dae8fc;strokeColor=#abc1e2;" vertex="1" parent="1">
          <mxGeometry x="540" y="420" width="160" height="30" as="geometry" />
        </mxCell>
        <mxCell id="A5vNZOaMK622pVnwqQIG-3" value="&lt;font style=&quot;font-size: 16px;&quot;&gt;addBiasTranspose&lt;/font&gt;" style="rounded=0;whiteSpace=wrap;html=1;fillColor=#b0e3e6;strokeColor=#6ab8be;" vertex="1" parent="1">
          <mxGeometry x="540" y="470" width="160" height="50" as="geometry" />
        </mxCell>
        <mxCell id="A5vNZOaMK622pVnwqQIG-4" value="&lt;font style=&quot;font-size: 16px;&quot;&gt;Q * K batch GEMM&lt;/font&gt;" style="rounded=0;whiteSpace=wrap;html=1;fillColor=#dae8fc;strokeColor=#abc1e2;align=center;verticalAlign=middle;fontFamily=Helvetica;fontSize=12;fontColor=default;" vertex="1" parent="1">
          <mxGeometry x="540" y="630" width="160" height="30" as="geometry" />
        </mxCell>
        <mxCell id="A5vNZOaMK622pVnwqQIG-7" value="&lt;font style=&quot;font-size: 16px;&quot;&gt;softmax&lt;/font&gt;" style="rounded=0;whiteSpace=wrap;html=1;strokeColor=#6ab8be;align=center;verticalAlign=middle;fontFamily=Helvetica;fontSize=12;fontColor=default;fillColor=#b0e3e6;" vertex="1" parent="1">
          <mxGeometry x="540" y="680" width="160" height="50" as="geometry" />
        </mxCell>
        <mxCell id="A5vNZOaMK622pVnwqQIG-8" value="&lt;font style=&quot;font-size: 16px;&quot;&gt;QK * V batch GEMM&lt;/font&gt;" style="rounded=0;whiteSpace=wrap;html=1;strokeColor=#abc1e2;align=center;verticalAlign=middle;fontFamily=Helvetica;fontSize=12;fontColor=default;fillColor=#dae8fc;" vertex="1" parent="1">
          <mxGeometry x="540" y="750" width="160" height="30" as="geometry" />
        </mxCell>
        <mxCell id="A5vNZOaMK622pVnwqQIG-9" value="&lt;div&gt;&lt;font style=&quot;font-size: 16px;&quot;&gt;if layer_num &amp;lt; L&lt;sub&gt;CPU&lt;/sub&gt;&lt;/font&gt;&lt;/div&gt;&lt;font style=&quot;font-size: 16px;&quot;&gt;offload KV&lt;/font&gt;" style="rounded=0;whiteSpace=wrap;html=1;fillColor=#ffe6cc;strokeColor=#d79b00;" vertex="1" parent="1">
          <mxGeometry x="540" y="540" width="160" height="70" as="geometry" />
        </mxCell>
        <mxCell id="A5vNZOaMK622pVnwqQIG-10" value="&lt;font style=&quot;font-size: 16px;&quot;&gt;Transpose&lt;/font&gt;" style="rounded=0;whiteSpace=wrap;html=1;strokeColor=#6ab8be;align=center;verticalAlign=middle;fontFamily=Helvetica;fontSize=12;fontColor=default;fillColor=#b0e3e6;" vertex="1" parent="1">
          <mxGeometry x="540" y="800" width="160" height="50" as="geometry" />
        </mxCell>
        <mxCell id="A5vNZOaMK622pVnwqQIG-11" value="&lt;font style=&quot;font-size: 16px;&quot;&gt;proj GEMM&lt;/font&gt;" style="rounded=0;whiteSpace=wrap;html=1;strokeColor=#abc1e2;align=center;verticalAlign=middle;fontFamily=Helvetica;fontSize=12;fontColor=default;fillColor=#dae8fc;" vertex="1" parent="1">
          <mxGeometry x="540" y="870" width="160" height="30" as="geometry" />
        </mxCell>
        <mxCell id="A5vNZOaMK622pVnwqQIG-12" value="" style="rounded=0;whiteSpace=wrap;html=1;strokeColor=#c0dab8;align=center;verticalAlign=middle;fontFamily=Helvetica;fontSize=12;fontColor=default;fillColor=#d5e8d4;" vertex="1" parent="1">
          <mxGeometry x="80" y="550" width="380" height="370" as="geometry" />
        </mxCell>
        <mxCell id="A5vNZOaMK622pVnwqQIG-13" value="&lt;font style=&quot;font-size: 16px;&quot;&gt;qkv GEMM&lt;/font&gt;" style="rounded=0;whiteSpace=wrap;html=1;strokeColor=#abc1e2;align=center;verticalAlign=middle;fontFamily=Helvetica;fontSize=12;fontColor=default;fillColor=#dae8fc;" vertex="1" parent="1">
          <mxGeometry x="100" y="570" width="340" height="30" as="geometry" />
        </mxCell>
        <mxCell id="A5vNZOaMK622pVnwqQIG-14" value="" style="rounded=0;whiteSpace=wrap;html=1;fillColor=#b1ddf0;strokeColor=#10739e;" vertex="1" parent="1">
          <mxGeometry x="100" y="620" width="160" height="230" as="geometry" />
        </mxCell>
        <mxCell id="A5vNZOaMK622pVnwqQIG-15" value="&lt;div&gt;&lt;span style=&quot;font-size: 16px; background-color: initial;&quot;&gt;fused QKV masked attention&lt;/span&gt;&lt;br&gt;&lt;/div&gt;" style="rounded=0;whiteSpace=wrap;html=1;strokeColor=#6ab8be;align=center;verticalAlign=middle;fontFamily=Helvetica;fontSize=12;fontColor=default;fillColor=#b0e3e6;" vertex="1" parent="1">
          <mxGeometry x="280" y="620" width="160" height="230" as="geometry" />
        </mxCell>
        <mxCell id="A5vNZOaMK622pVnwqQIG-19" value="&lt;span style=&quot;font-size: 16px;&quot;&gt;if layer_num &amp;lt; L&lt;/span&gt;&lt;sub&gt;CPU&lt;/sub&gt;" style="text;html=1;align=center;verticalAlign=middle;whiteSpace=wrap;rounded=0;" vertex="1" parent="1">
          <mxGeometry x="100" y="620" width="160" height="30" as="geometry" />
        </mxCell>
        <mxCell id="A5vNZOaMK622pVnwqQIG-20" value="&lt;font style=&quot;font-size: 16px;&quot;&gt;offload QKV&lt;/font&gt;" style="rounded=0;whiteSpace=wrap;html=1;strokeColor=#d79b00;align=center;verticalAlign=middle;fontFamily=Helvetica;fontSize=12;fillColor=#ffe6cc;" vertex="1" parent="1">
          <mxGeometry x="110" y="660" width="140" height="40" as="geometry" />
        </mxCell>
        <mxCell id="A5vNZOaMK622pVnwqQIG-21" value="&lt;font color=&quot;#000000&quot; style=&quot;font-size: 16px;&quot;&gt;attention CPU&lt;/font&gt;" style="rounded=0;whiteSpace=wrap;html=1;fillColor=#cdeb8b;strokeColor=#97D077;" vertex="1" parent="1">
          <mxGeometry x="110" y="720" width="140" height="50" as="geometry" />
        </mxCell>
        <mxCell id="A5vNZOaMK622pVnwqQIG-22" value="&lt;font style=&quot;font-size: 16px;&quot;&gt;upload result&lt;/font&gt;" style="rounded=0;whiteSpace=wrap;html=1;strokeColor=#d79b00;align=center;verticalAlign=middle;fontFamily=Helvetica;fontSize=12;fillColor=#ffe6cc;" vertex="1" parent="1">
          <mxGeometry x="110" y="790" width="140" height="40" as="geometry" />
        </mxCell>
        <mxCell id="A5vNZOaMK622pVnwqQIG-23" value="&lt;span style=&quot;font-size: 16px;&quot;&gt;else&lt;/span&gt;" style="text;html=1;align=center;verticalAlign=middle;whiteSpace=wrap;rounded=0;" vertex="1" parent="1">
          <mxGeometry x="280" y="620" width="160" height="30" as="geometry" />
        </mxCell>
        <mxCell id="A5vNZOaMK622pVnwqQIG-24" value="&lt;font style=&quot;font-size: 16px;&quot;&gt;proj GEMM&lt;/font&gt;" style="rounded=0;whiteSpace=wrap;html=1;strokeColor=#abc1e2;align=center;verticalAlign=middle;fontFamily=Helvetica;fontSize=12;fontColor=default;fillColor=#dae8fc;" vertex="1" parent="1">
          <mxGeometry x="100" y="870" width="340" height="30" as="geometry" />
        </mxCell>
        <mxCell id="A5vNZOaMK622pVnwqQIG-25" value="" style="endArrow=classic;html=1;rounded=0;" edge="1" parent="1">
          <mxGeometry width="50" height="50" relative="1" as="geometry">
            <mxPoint x="619.5" y="360" as="sourcePoint" />
            <mxPoint x="619.5" y="420" as="targetPoint" />
          </mxGeometry>
        </mxCell>
        <mxCell id="A5vNZOaMK622pVnwqQIG-27" value="&lt;font style=&quot;font-size: 15px;&quot;&gt;attention input&lt;/font&gt;" style="text;html=1;align=center;verticalAlign=middle;whiteSpace=wrap;rounded=0;" vertex="1" parent="1">
          <mxGeometry x="550" y="330" width="140" height="30" as="geometry" />
        </mxCell>
        <mxCell id="A5vNZOaMK622pVnwqQIG-28" value="" style="endArrow=classic;html=1;rounded=0;" edge="1" parent="1">
          <mxGeometry width="50" height="50" relative="1" as="geometry">
            <mxPoint x="619.5" y="900" as="sourcePoint" />
            <mxPoint x="619.5" y="960" as="targetPoint" />
          </mxGeometry>
        </mxCell>
        <mxCell id="A5vNZOaMK622pVnwqQIG-29" value="&lt;font style=&quot;font-size: 15px;&quot;&gt;attention output&lt;/font&gt;" style="text;html=1;align=center;verticalAlign=middle;whiteSpace=wrap;rounded=0;" vertex="1" parent="1">
          <mxGeometry x="550" y="960" width="140" height="30" as="geometry" />
        </mxCell>
        <mxCell id="A5vNZOaMK622pVnwqQIG-30" value="" style="endArrow=classic;html=1;rounded=0;" edge="1" parent="1">
          <mxGeometry width="50" height="50" relative="1" as="geometry">
            <mxPoint x="269.5" y="510" as="sourcePoint" />
            <mxPoint x="269.5" y="570" as="targetPoint" />
          </mxGeometry>
        </mxCell>
        <mxCell id="A5vNZOaMK622pVnwqQIG-31" value="&lt;font style=&quot;font-size: 15px;&quot;&gt;attention input&lt;/font&gt;" style="text;html=1;align=center;verticalAlign=middle;whiteSpace=wrap;rounded=0;" vertex="1" parent="1">
          <mxGeometry x="200" y="480" width="140" height="30" as="geometry" />
        </mxCell>
        <mxCell id="A5vNZOaMK622pVnwqQIG-34" value="" style="endArrow=classic;html=1;rounded=0;" edge="1" parent="1">
          <mxGeometry width="50" height="50" relative="1" as="geometry">
            <mxPoint x="269.5" y="900" as="sourcePoint" />
            <mxPoint x="269.5" y="960" as="targetPoint" />
          </mxGeometry>
        </mxCell>
        <mxCell id="A5vNZOaMK622pVnwqQIG-35" value="&lt;font style=&quot;font-size: 15px;&quot;&gt;attention output&lt;/font&gt;" style="text;html=1;align=center;verticalAlign=middle;whiteSpace=wrap;rounded=0;" vertex="1" parent="1">
          <mxGeometry x="200" y="960" width="140" height="30" as="geometry" />
        </mxCell>
        <mxCell id="A5vNZOaMK622pVnwqQIG-38" value="&lt;font style=&quot;font-size: 16px;&quot;&gt;&lt;b&gt;DecoderSelfAttention(增量)&lt;/b&gt;&lt;/font&gt;" style="text;html=1;align=center;verticalAlign=middle;whiteSpace=wrap;rounded=0;" vertex="1" parent="1">
          <mxGeometry x="165" y="990" width="210" height="30" as="geometry" />
        </mxCell>
        <mxCell id="A5vNZOaMK622pVnwqQIG-39" value="&lt;font style=&quot;font-size: 16px;&quot;&gt;&lt;b&gt;ContextSelfAttention(全量)&lt;/b&gt;&lt;/font&gt;" style="text;html=1;align=center;verticalAlign=middle;whiteSpace=wrap;rounded=0;" vertex="1" parent="1">
          <mxGeometry x="510" y="990" width="210" height="30" as="geometry" />
        </mxCell>
        <mxCell id="A5vNZOaMK622pVnwqQIG-40" value="&lt;font style=&quot;font-size: 16px;&quot;&gt;xxx GEMM&lt;/font&gt;" style="rounded=0;whiteSpace=wrap;html=1;fillColor=#dae8fc;strokeColor=#abc1e2;" vertex="1" parent="1">
          <mxGeometry x="80" y="430" width="140" height="30" as="geometry" />
        </mxCell>
        <mxCell id="A5vNZOaMK622pVnwqQIG-41" value="&lt;font style=&quot;font-size: 16px;&quot;&gt;xxx layer&lt;/font&gt;" style="rounded=0;whiteSpace=wrap;html=1;fillColor=#d5e8d4;strokeColor=#c0dab8;align=center;verticalAlign=middle;fontFamily=Helvetica;fontSize=12;fontColor=default;" vertex="1" parent="1">
          <mxGeometry x="80" y="380" width="140" height="30" as="geometry" />
        </mxCell>
        <mxCell id="A5vNZOaMK622pVnwqQIG-42" value="&lt;font style=&quot;font-size: 16px;&quot;&gt;xxx kernel&lt;/font&gt;" style="rounded=0;whiteSpace=wrap;html=1;fillColor=#b0e3e6;strokeColor=#6ab8be;align=center;verticalAlign=middle;fontFamily=Helvetica;fontSize=12;fontColor=default;" vertex="1" parent="1">
          <mxGeometry x="80" y="330" width="140" height="30" as="geometry" />
        </mxCell>
      </root>
    </mxGraphModel>
  </diagram>
</mxfile>
